<?xml version="1.0" encoding="UTF-8"?>
<!-- Generator: visioncortex VTracer 0.6.3 -->
<svg version="1.1" xmlns="http://www.w3.org/2000/svg" width="230" height="219">
<path d="M0 0 C75.9 0 151.8 0 230 0 C230 72.27 230 144.54 230 219 C154.1 219 78.2 219 0 219 C0 146.73 0 74.46 0 0 Z " fill="#FDFDFE" transform="translate(0,0)"/>
<path d="M0 0 C18.81 0 37.62 0 57 0 C57 72.27 57 144.54 57 219 C38.19 219 19.38 219 0 219 C-4 215 -4 215 -5.06 211.56 C-5 208 -5 208 -3.38 205.19 C0.29 202.04 5.03 202.08 9.65 201.51 C18.16 200.22 25.44 196.66 31 190 C41.2 173.63 40.16 152.65 40.17 134.09 C40.17 132.15 40.17 130.22 40.18 128.28 C40.18 124.23 40.19 120.18 40.19 116.13 C40.19 111 40.2 105.86 40.22 100.72 C40.23 96.72 40.23 92.72 40.23 88.72 C40.23 86.83 40.23 84.94 40.24 83.05 C40.93 53.15 40.93 53.15 28.93 26.87 C21.49 19.64 13.07 17.86 3.02 16.76 C-0.49 15.88 -1.78 14.81 -4 12 C-5.06 9.12 -5.06 9.12 -5 6 C-3.35 4.02 -1.7 2.04 0 0 Z " fill="#141B34" transform="translate(173,0)"/>
<path d="M0 0 C55 0 55 0 60 2 C61.99 4.54 62.01 5.82 61.81 9.06 C60.95 12.16 60.43 13.03 58 15 C55.92 15.5 53.83 16 51.73 16.42 C41.18 18.67 32.26 21.54 25.25 30.06 C20.09 38.11 18.76 47.37 17.9 56.7 C17.82 57.61 17.73 58.53 17.65 59.48 C16.82 69.07 16.71 78.61 16.73 88.23 C16.73 90.09 16.73 91.94 16.73 93.8 C16.73 97.64 16.73 101.49 16.74 105.34 C16.75 110.22 16.74 115.09 16.73 119.97 C16.72 123.79 16.73 127.61 16.73 131.42 C16.73 133.22 16.73 135.02 16.73 136.81 C16.71 145.87 16.92 154.81 17.9 163.83 C17.98 164.55 18.06 165.28 18.14 166.03 C19.46 176.94 22.87 187.96 31.5 195.25 C37.86 199.67 45.82 201.88 53.5 202.44 C57 203 57 203 60.06 205.12 C62 208 62 208 62 211.62 C61.05 214.82 60.64 216.1 58 218 C40.71 226.65 19.34 219 0 219 C0 146.73 0 74.46 0 0 Z " fill="#141B34" transform="translate(0,0)"/>
<path d="M0 0 C0.33 0 0.66 0 1 0 C1 23.43 1 46.86 1 71 C-15.5 71 -32 71 -49 71 C-49 70.67 -49 70.34 -49 70 C-47.98 69.78 -46.97 69.56 -45.92 69.34 C-31.66 66.11 -19.2 61.53 -10.71 48.98 C-3.91 37.12 -1.97 23.77 -0.88 10.38 C-0.79 9.37 -0.7 8.37 -0.61 7.33 C-0.4 4.89 -0.2 2.44 0 0 Z " fill="#F9F9F9" transform="translate(229,148)"/>
<path d="M0 0 C0.33 0 0.66 0 1 0 C1.01 0.59 1.02 1.18 1.03 1.79 C1.44 22.61 2.07 48.4 18 64 C27.7 71.51 37.97 75.26 50 77 C50 77.33 50 77.66 50 78 C33.5 78 17 78 0 78 C0 52.26 0 26.52 0 0 Z " fill="#F9F9FA" transform="translate(0,141)"/>
<path d="M0 0 C16.5 0 33 0 50 0 C50 23.43 50 46.86 50 71 C49.67 71 49.34 71 49 71 C48.96 70.39 48.92 69.77 48.88 69.14 C47.08 39.14 47.08 39.14 32 14 C22.22 6.7 11.96 2.97 0 1 C0 0.67 0 0.34 0 0 Z " fill="#FAFAFA" transform="translate(180,0)"/>
<path d="M0 0 C16.17 0 32.34 0 49 0 C45.54 1.73 43.14 2.48 39.44 3.25 C27.57 6.17 17.98 12.37 11.25 22.68 C4.43 35.25 2.09 49.75 1.44 63.88 C1.39 64.75 1.35 65.63 1.31 66.54 C1.2 68.69 1.1 70.85 1 73 C0.67 73 0.34 73 0 73 C0 48.91 0 24.82 0 0 Z " fill="#FAFAFA" transform="translate(0,0)"/>
<path d="M0 0 C4.12 1.78 6.29 3.83 8 8 C7.91 13.28 6.73 16.27 3 20 C-0.61 21.2 -3.21 21.33 -7 21 C-10.37 18.9 -12.89 16.88 -14 13 C-13.81 7.7 -12.69 4.8 -9 1 C-5.94 -0.53 -3.38 -0.23 0 0 Z " fill="#161C35" transform="translate(118,99)"/>
<path d="M0 0 C3.37 2.1 5.89 4.12 7 8 C6.81 13.3 5.69 16.2 2 20 C-1.21 21.6 -4.52 21.49 -8 21 C-11.4 18.93 -13.89 16.89 -15 13 C-14.92 8.53 -14.48 6.56 -11.56 3.12 C-7.56 -0.2 -5.21 -0.44 0 0 Z " fill="#171D36" transform="translate(119,56)"/>
<path d="M0 0 C3.85 1.67 5.47 3.14 7 7 C7.21 10.12 6.87 12.99 6 16 C3.03 19.05 0.47 20.8 -3.75 21.38 C-8.28 20.85 -9.77 19.16 -13 16 C-14.6 12.8 -14.5 9.47 -14 6 C-10.25 0.13 -6.78 -0.73 0 0 Z " fill="#141A33" transform="translate(172,142)"/>
<path d="M0 0 C2.81 1.79 4.51 3.02 6 6 C6.49 10.93 6.52 13.07 4.06 17.44 C0.63 20.31 -1.37 21.1 -5.78 21.29 C-8.71 20.91 -10.8 19.82 -12.9 17.73 C-15.03 14.37 -15.31 10.9 -15 7 C-13.81 4.05 -12.8 2.62 -10.31 0.69 C-6.85 -0.34 -3.55 -0.59 0 0 Z " fill="#141A33" transform="translate(66,142)"/>
<path d="M0 0 C3.66 2.04 5.67 3.5 8 7 C8.46 11.96 8.15 15.06 5 19 C1.99 21.34 -1.28 21.42 -5.03 21.32 C-8.18 20.81 -9.86 19.27 -12 17 C-13.22 13.35 -13.39 10.84 -13 7 C-9.69 1.45 -6.44 -0.62 0 0 Z " fill="#141A33" transform="translate(171,56)"/>
<path d="M0 0 C4.01 1.2 5.15 3.05 7.23 6.66 C7.79 10.63 7.61 12.85 5.92 16.48 C4.23 18.66 4.23 18.66 1.23 20.66 C-4.07 21.09 -7.5 21.18 -11.77 17.66 C-14.34 14.24 -14.21 10.82 -13.77 6.66 C-9.98 0.78 -6.76 -0.95 0 0 Z " fill="#141A33" transform="translate(64.76953125,56.3359375)"/>
<path d="M0 0 C2.82 1.25 4.46 2.28 6.31 4.75 C7.63 9.07 7.59 12.68 5.75 16.81 C2.94 20.32 1.07 20.86 -3.38 21.44 C-7.04 21 -9.12 20.25 -11.82 17.69 C-14.13 14.38 -14.55 10.94 -14 7 C-10.69 0.77 -6.75 -0.46 0 0 Z " fill="#131932" transform="translate(65,99)"/>
<path d="M0 0 C2.62 1.8 3.34 3.11 5 6 C5.81 10.52 5.35 12.39 3.06 16.38 C0.17 19.44 -2.73 19.98 -6.85 20.17 C-9.94 19.92 -11.68 19.04 -14 17 C-16.57 13.58 -16.36 10.15 -16 6 C-12.76 -1.29 -7.2 -2.18 0 0 Z " fill="#131932" transform="translate(174,100)"/>
<path d="M0 0 C2.81 1.79 4.51 3.02 6 6 C6.65 10.71 6.68 13.98 4 18 C0.32 20.46 -2.57 21.47 -7 21 C-12.43 18.14 -12.43 18.14 -14 15 C-14.56 10.37 -14.64 7.02 -12.12 3 C-8.46 -0.45 -4.88 -0.7 0 0 Z " fill="#131932" transform="translate(119,142)"/>
</svg>
