<svg width="116" height="36" viewBox="0 0 116 36" fill="none" xmlns="http://www.w3.org/2000/svg" id="svg1724919024_4345">
    <path d="M69.2907 27.5532C68.5021 27.5532 67.8965 27.317 67.4774 26.8434C67.0571 26.3709 66.8463 25.7132 66.8463 24.8726V10.402C66.8463 8.61535 67.6603 7.72144 69.2907 7.72144C70.9465 7.72144 71.7744 8.61535 71.7744 10.402V24.8714C71.7744 25.7132 71.5637 26.3698 71.1434 26.8422C70.7219 27.317 70.1047 27.5532 69.2907 27.5532Z" fill="#04045B"></path>
    <path d="M77.2665 27.5927C75.6362 27.5927 74.8221 26.7521 74.8221 25.0696V10.166C74.8221 8.51017 75.6234 7.68225 77.2272 7.68225C78.8297 7.68225 79.6322 8.51017 79.6322 10.166V10.9939C80.2887 9.89041 81.1757 9.0486 82.2931 8.4708C83.4105 7.893 84.6645 7.60352 86.0586 7.60352C90.6058 7.60352 92.8799 10.2447 92.8799 15.5283V25.0696C92.8799 26.7521 92.0648 27.5927 90.4356 27.5927C88.7797 27.5927 87.9518 26.7521 87.9518 25.0696V15.7645C87.9518 14.2662 87.6693 13.6386 87.1042 12.9554C86.5392 12.2723 85.6649 11.9307 84.4827 11.9307C83.0364 11.9307 81.8866 12.3834 81.0332 13.2912C80.1787 14.1979 79.7514 14.9378 79.7514 16.4361V25.0708C79.7503 26.7521 78.9223 27.5927 77.2665 27.5927Z" fill="#04045B"></path>
    <path d="M104.798 34.7682C104.405 34.7682 101.032 34.6651 99.3052 33.7481C97.9215 33.0128 98.0442 31.4843 98.248 31.0871C98.5583 30.4839 99.069 29.7926 100.398 29.9211C102.294 30.1029 103.314 30.7224 104.404 30.7595C107.924 30.8776 109.687 29.3283 109.687 25.9367V23.9335C109.135 25.0115 108.54 25.9738 107.397 26.6048C106.254 27.2359 104.732 27.4432 103.339 27.4432C101.605 27.4432 100.192 26.7507 98.9046 25.9494C97.6169 25.1482 96.3537 23.4715 95.8083 22.2314C95.161 20.7573 94.7441 19.1038 94.7441 17.1851C94.7441 15.2665 95.0985 13.5909 95.8083 12.1586C96.5181 10.7263 97.5162 9.61001 98.805 8.80757C100.093 8.00629 101.605 7.60449 103.339 7.60449C104.732 7.60449 105.995 7.90671 107.125 8.51115C108.255 9.11558 109.083 9.94349 109.608 10.9949V10.167C109.608 9.35295 109.825 8.73462 110.259 8.3143C110.693 7.89397 111.291 7.68323 112.053 7.68323C113.682 7.68323 114.497 8.51115 114.497 10.167V25.3462C114.497 28.7921 113.669 30.8266 112.013 32.4037C110.358 33.9796 107.953 34.7682 104.798 34.7682ZM104.679 23.0581C106.137 23.0581 107.293 22.5556 108.147 21.5505C109.002 20.5454 109.429 19.1756 109.429 17.441C109.429 15.7065 109.002 14.3436 108.147 13.3501C107.293 12.3578 106.136 11.861 104.679 11.861C103.221 11.861 102.065 12.3578 101.211 13.3501C100.357 14.3436 99.9293 15.7065 99.9293 17.441C99.9293 19.1756 100.357 20.5454 101.211 21.5505C102.066 22.5556 103.221 23.0581 104.679 23.0581Z" fill="#04045B"></path>
    <path d="M69.3012 5.24592C70.6748 5.24592 71.7884 4.13235 71.7884 2.7587C71.7884 1.38505 70.6748 0.271484 69.3012 0.271484C67.9275 0.271484 66.814 1.38505 66.814 2.7587C66.814 4.13235 67.9275 5.24592 69.3012 5.24592Z" fill="#04045B"></path>
    <path d="M56.1182 7.55599C53.5337 7.6162 51.358 8.79496 49.8434 10.6766V10.1648C49.8434 8.50896 49.0282 7.68104 47.399 7.68104C45.7953 7.68104 44.994 8.50896 44.994 10.1648V32.2047C44.994 33.8605 45.808 34.6884 47.4384 34.6884C49.0942 34.6884 49.9221 33.8605 49.9221 32.2047V24.6956C51.3475 26.4405 53.36 27.588 55.8252 27.588C60.5623 27.588 64.6949 23.4925 64.6949 17.8928C64.6949 12.293 61.433 7.43325 56.1182 7.55599ZM54.68 23.1926C51.9566 23.1926 49.7484 20.5942 49.7484 17.3879C49.7484 14.1828 51.9566 11.5832 54.68 11.5832C57.4035 11.5832 59.6116 14.1816 59.6116 17.3879C59.6116 20.5942 57.4035 23.1926 54.68 23.1926Z" fill="#04045B"></path>
    <path d="M18.9164 30.1888C8.6445 30.1888 0.286621 21.8321 0.286621 11.5602C0.286621 9.51991 1.94129 7.86523 3.98155 7.86523C6.02181 7.86523 7.67648 9.51991 7.67648 11.5602C7.67648 17.7574 12.7181 22.8001 18.9164 22.8001C25.1148 22.8001 30.1564 17.7585 30.1564 11.5602C30.1564 9.51991 31.811 7.86523 33.8513 7.86523C35.8916 7.86523 37.5462 9.51991 37.5462 11.5602C37.5451 21.8321 29.1884 30.1888 18.9164 30.1888Z" fill="#5900CC"></path>
    <path d="M3.97 15.2528C6.01513 15.2528 7.67304 13.5948 7.67304 11.5497C7.67304 9.50459 6.01513 7.84668 3.97 7.84668C1.92487 7.84668 0.266968 9.50459 0.266968 11.5497C0.266968 13.5948 1.92487 15.2528 3.97 15.2528Z" fill="#C028B9"></path>
    <path d="M33.8317 15.2528C35.8768 15.2528 37.5347 13.5948 37.5347 11.5497C37.5347 9.50459 35.8768 7.84668 33.8317 7.84668C31.7866 7.84668 30.1287 9.50459 30.1287 11.5497C30.1287 13.5948 31.7866 15.2528 33.8317 15.2528Z" fill="#C028B9"></path>
</svg>